<?xml version="1.0" standalone="no"?>
<!DOCTYPE svg PUBLIC "-//W3C//DTD SVG 20010904//EN"
 "http://www.w3.org/TR/2001/REC-SVG-20010904/DTD/svg10.dtd">
<svg version="1.0" xmlns="http://www.w3.org/2000/svg"
 width="224.000000pt" height="225.000000pt" viewBox="0 0 224.000000 225.000000"
 preserveAspectRatio="xMidYMid meet">

<g transform="translate(0.000000,225.000000) scale(0.100000,-0.100000)"
fill="#000000" stroke="none">
<path d="M0 1125 l0 -1125 1120 0 1120 0 0 1125 0 1125 -1120 0 -1120 0 0
-1125z m1375 940 c369 -108 631 -395 706 -770 6 -33 11 -114 11 -180 0 -200
-52 -369 -164 -536 -305 -456 -908 -573 -1363 -266 -76 52 -209 185 -258 260
-198 299 -221 677 -60 992 49 95 84 145 160 226 135 143 301 239 488 282 110
26 112 26 255 22 110 -2 152 -8 225 -30z"/>
<path d="M940 2025 c-101 -23 -158 -43 -251 -91 -215 -111 -380 -313 -455
-559 -26 -82 -28 -104 -28 -250 0 -188 17 -263 89 -410 162 -330 505 -532 870
-512 122 7 233 35 343 87 103 49 158 87 243 167 253 240 347 604 243 936 -48
151 -107 249 -218 365 -121 126 -247 202 -416 252 -98 29 -323 37 -420 15z
m194 -21 c23 -9 20 -45 -4 -51 -11 -3 -20 -12 -20 -19 0 -8 -4 -14 -10 -14 -5
0 -10 20 -10 45 0 46 8 53 44 39z m-92 -30 c14 -31 1 -57 -31 -62 -29 -5 -51
15 -51 44 0 45 63 59 82 18z m205 -19 c14 -42 11 -54 -11 -36 -8 7 -25 9 -40
5 l-25 -6 22 41 c12 22 26 39 31 38 5 -2 15 -20 23 -42z m-337 15 c0 -5 -6
-10 -14 -10 -8 0 -18 -5 -22 -11 -5 -9 1 -10 20 -5 30 7 36 -9 6 -19 -29 -9
-15 -23 17 -17 35 6 20 -14 -18 -23 -23 -6 -27 -2 -37 33 -15 50 -15 50 6 55
30 8 42 7 42 -3z m444 4 c17 -7 22 -44 6 -44 -6 0 -8 -12 -5 -27 6 -27 6 -27
-9 -9 -9 11 -16 23 -16 28 0 4 -4 8 -10 8 -5 0 -10 -7 -10 -15 0 -8 -4 -15
-10 -15 -12 0 -12 7 -4 49 7 31 23 38 58 25z m81 -45 c-6 -18 -5 -19 13 -10
30 16 51 14 30 -3 -11 -8 -18 -26 -18 -45 0 -19 -4 -30 -10 -26 -5 3 -10 15
-10 26 0 23 -16 25 -28 3 -17 -30 -20 0 -5 39 16 39 39 53 28 16z m-625 1 c0
-5 -9 -10 -19 -10 -24 0 -33 -13 -25 -34 7 -17 44 -22 44 -6 0 6 -5 10 -12 10
-9 0 -9 3 0 12 18 18 40 -7 26 -30 -15 -23 -48 -27 -68 -7 -20 21 -20 39 0 59
17 18 54 22 54 6z m-65 -327 c102 -34 345 -90 345 -79 0 5 -7 18 -17 28 -24
27 -10 32 21 7 15 -12 42 -23 59 -25 18 -2 60 -18 93 -35 34 -17 72 -29 85
-27 21 3 24 9 27 48 2 33 9 51 27 67 l25 22 39 -42 40 -42 -40 -7 c-52 -9 -59
-14 -59 -46 0 -41 -27 -72 -84 -97 -28 -13 -59 -32 -68 -43 -10 -12 -24 -19
-35 -16 -11 3 -28 -5 -42 -20 -30 -31 -41 -33 -41 -5 0 16 -4 19 -22 14 -30
-9 -105 -53 -113 -65 -4 -6 -10 -8 -15 -5 -26 16 -48 -153 -31 -237 56 -268
339 -415 591 -307 34 14 40 15 25 3 -80 -63 -214 -95 -317 -76 -266 49 -421
317 -328 566 24 62 76 139 90 131 5 -3 12 0 16 6 5 8 2 10 -7 4 -8 -4 0 4 16
18 17 14 27 29 22 33 -4 4 -42 7 -85 7 -85 0 -168 -25 -235 -69 -21 -14 -41
-24 -43 -21 -3 2 24 31 60 64 57 54 91 73 176 100 8 2 -21 19 -65 37 -106 43
-138 60 -180 97 -37 33 -47 56 -17 43 9 -4 49 -18 87 -31z m832 -200 c11 -16
34 -63 53 -106 18 -43 51 -104 73 -135 l39 -57 -37 35 c-22 21 -58 79 -92 148
-30 61 -58 114 -63 117 -11 7 -34 -24 -55 -75 -39 -92 -75 -122 -105 -86 -18
23 -33 11 -104 -85 -60 -79 -96 -109 -96 -79 0 14 73 113 123 168 40 42 72 53
94 31 17 -17 30 -3 64 64 17 34 36 68 41 75 17 20 46 14 65 -15z m-602 -57
c-109 -51 -188 -140 -226 -253 -30 -91 -24 -213 14 -297 66 -143 179 -228 340
-255 l52 -9 -68 -1 c-159 -3 -306 89 -382 239 -112 219 2 496 238 580 74 26
91 24 32 -4z m-29 -51 c-24 -25 -59 -75 -78 -112 -31 -63 -33 -71 -33 -177 0
-100 3 -117 27 -170 16 -32 25 -62 22 -67 -3 -5 -2 -8 3 -7 4 2 32 -23 61 -53
32 -35 76 -68 115 -87 67 -33 174 -55 228 -47 l34 5 -30 -10 c-80 -28 -236 -4
-323 49 -94 59 -197 207 -178 257 3 8 2 13 -3 10 -15 -10 -23 105 -11 163 19
100 92 214 170 267 19 13 36 24 38 24 2 0 -17 -20 -42 -45z m544 -150 c7 -8
18 -15 25 -15 7 0 18 7 25 15 20 24 29 18 35 -22 24 -161 46 -194 168 -253
l82 -39 -52 -1 c-67 0 -123 28 -158 81 -14 23 -29 38 -32 35 -3 -3 6 -23 21
-45 26 -37 28 -61 5 -61 -6 0 -7 4 -4 10 3 5 0 7 -9 4 -8 -3 -19 3 -26 15 -16
31 -30 26 -30 -10 0 -26 -2 -29 -14 -20 -8 7 -25 9 -40 5 -25 -6 -26 -5 -26
41 0 41 -2 46 -15 35 -8 -7 -15 -20 -15 -29 0 -9 -4 -23 -10 -31 -7 -12 -12
-12 -34 -1 -18 10 -29 11 -38 3 -14 -11 -120 -39 -155 -40 -41 -1 -24 13 35
30 98 29 130 84 124 219 l-2 47 43 11 c23 6 49 15 57 21 20 13 25 13 40 -5z
m-930 -581 c0 -3 -5 -14 -10 -25 -12 -21 -7 -24 20 -9 34 18 34 -11 0 -44 -29
-28 -32 -29 -27 -9 4 20 3 21 -15 12 -19 -10 -20 -9 -14 17 6 23 5 27 -5 17
-28 -27 -31 -11 -4 17 26 27 55 40 55 24z m1175 -19 c16 -13 26 -27 22 -32 -4
-4 -22 7 -40 25 -37 37 -25 42 18 7z m-25 -69 c0 -14 -31 -46 -45 -46 -6 0
-22 14 -35 32 l-23 31 22 18 c22 18 23 18 52 -3 16 -12 29 -26 29 -32z m-1046
-1 c11 -8 17 -18 13 -21 -4 -4 -13 -1 -22 6 -9 7 -19 10 -23 6 -4 -4 1 -12 11
-17 25 -14 22 -32 -4 -19 -27 15 -39 2 -15 -16 29 -21 14 -26 -16 -6 l-27 18
21 32 c22 35 34 38 62 17z m936 -41 c23 -37 20 -61 -4 -28 -13 17 -14 17 -9
-9 6 -28 -5 -35 -24 -16 -9 9 -10 7 -6 -10 8 -31 -2 -26 -27 15 -15 23 -19 39
-13 45 6 6 14 4 23 -6 16 -19 31 -20 24 0 -6 15 1 45 10 45 2 0 14 -16 26 -36z
m-830 -40 c0 -8 -7 -17 -15 -20 -8 -4 -15 -15 -15 -25 0 -10 -4 -19 -10 -19
-5 0 -10 11 -10 25 0 14 -4 25 -10 25 -5 0 -10 -4 -10 -10 0 -5 -4 -10 -10
-10 -15 0 -12 11 10 48 20 32 21 32 45 16 14 -9 25 -23 25 -30z m711 -31 c20
-22 27 -34 16 -30 -11 4 -25 -1 -37 -13 -19 -19 -19 -19 -26 15 -5 31 -1 65 9
65 2 0 19 -16 38 -37z m-631 -35 c0 -51 -1 -52 -16 -30 -11 16 -22 21 -35 17
-10 -4 -19 -3 -19 1 0 11 52 64 62 64 4 0 8 -24 8 -52z m536 -10 c5 -27 2 -36
-11 -42 -19 -7 -35 0 -35 16 0 5 7 7 16 4 13 -5 15 0 9 36 -5 32 -4 40 4 32 7
-6 14 -27 17 -46z m-445 1 l7 -24 7 23 c4 12 11 22 16 22 8 0 5 -29 -7 -67 -6
-22 -22 -14 -32 15 -9 26 -9 27 -16 5 -13 -40 -24 -25 -14 17 11 44 28 48 39
9z m325 -67 c-3 -3 -18 5 -32 19 -26 23 -26 23 -20 2 4 -12 3 -24 -3 -27 -10
-7 -27 72 -17 81 3 4 18 -4 33 -18 21 -19 25 -21 20 -6 -4 11 -4 24 0 30 4 7
11 -7 16 -31 5 -24 6 -46 3 -50z m-181 67 c10 -15 -3 -24 -18 -11 -7 6 -18 7
-26 3 -19 -12 -9 -45 14 -50 17 -3 18 -1 6 13 -12 14 -11 16 8 16 14 0 21 -6
21 -20 0 -26 -25 -36 -56 -22 -26 13 -33 49 -12 70 15 15 55 16 63 1z m65 -34
c0 -25 -4 -45 -10 -45 -5 0 -10 20 -10 45 0 25 5 45 10 45 6 0 10 -20 10 -45z"/>
<path d="M1110 1980 c0 -5 5 -10 10 -10 6 0 10 5 10 10 0 6 -4 10 -10 10 -5 0
-10 -4 -10 -10z"/>
<path d="M983 1964 c-3 -8 1 -22 9 -30 13 -13 16 -13 27 0 7 9 11 23 7 31 -7
20 -35 19 -43 -1z"/>
<path d="M1215 1960 c-3 -5 -1 -10 4 -10 6 0 11 5 11 10 0 6 -2 10 -4 10 -3 0
-8 -4 -11 -10z"/>
<path d="M1320 1950 c0 -5 7 -10 15 -10 8 0 15 5 15 10 0 6 -7 10 -15 10 -8 0
-15 -4 -15 -10z"/>
<path d="M1230 1476 c0 -2 8 -10 18 -17 15 -13 16 -12 3 4 -13 16 -21 21 -21
13z"/>
<path d="M1271 1414 c0 -11 3 -14 6 -6 3 7 2 16 -1 19 -3 4 -6 -2 -5 -13z"/>
<path d="M1026 612 c-3 -5 1 -9 9 -9 8 0 12 4 9 9 -3 4 -7 8 -9 8 -2 0 -6 -4
-9 -8z"/>
<path d="M1640 495 c-8 -9 -8 -15 -2 -15 12 0 26 19 19 26 -2 2 -10 -2 -17
-11z"/>
<path d="M1660 465 c0 -9 6 -12 15 -9 8 4 15 10 15 15 0 5 -7 9 -15 9 -8 0
-15 -7 -15 -15z"/>
<path d="M720 400 c0 -5 7 -10 16 -10 8 0 12 5 9 10 -3 6 -10 10 -16 10 -5 0
-9 -4 -9 -10z"/>
<path d="M1450 354 c0 -8 5 -12 10 -9 6 4 8 11 5 16 -9 14 -15 11 -15 -7z"/>
<path d="M820 339 c0 -5 5 -7 10 -4 6 3 10 8 10 11 0 2 -4 4 -10 4 -5 0 -10
-5 -10 -11z"/>
</g>
</svg>
